Coordinates
version=1
nRows=17
nColumns=40
inDegrees=yes

Units are S.I. units (second, meters, Newtons, ...)
Angles are in degrees.

endheader
time	pelvis_tilt	pelvis_list	pelvis_rotation	pelvis_tx	pelvis_ty	pelvis_tz	hip_flexion_r	hip_adduction_r	hip_rotation_r	knee_angle_r	knee_angle_r_beta	ankle_angle_r	subtalar_angle_r	mtp_angle_r	hip_flexion_l	hip_adduction_l	hip_rotation_l	knee_angle_l	knee_angle_l_beta	ankle_angle_l	subtalar_angle_l	mtp_angle_l	lumbar_extension	lumbar_bending	lumbar_rotation	arm_flex_r	arm_add_r	arm_rot_r	elbow_flex_r	pro_sup_r	wrist_flex_r	wrist_dev_r	arm_flex_l	arm_add_l	arm_rot_l	elbow_flex_l	pro_sup_l	wrist_flex_l	wrist_dev_l
     34.64000000	     -2.73276213	     -8.13346205	      0.29574236	      0.98542136	      0.92709031	      0.52402984	      7.49894287	      7.77427094	    -11.74093206	     15.46782522	     15.46782522	     13.32419827	      1.36157706	     -2.27001939	     36.23353904	    -15.29158146	      6.97972594	     77.84521923	     77.84521923	     -3.00861214	    -19.58619982	     21.40746981	    -10.06658747	      4.82397004	      1.81519407	     16.10615434	    -16.23351688	      3.94486402	     79.43827287	     45.72633110	      0.00000000	      0.00000000	     -1.55206000	     -7.20283073	    -10.58324725	     31.38759511	     45.62443488	      0.00000000	      0.00000000
     34.65135714	     -2.96839958	     -8.02412492	      0.41611160	      0.98365650	      0.92717415	      0.52440734	      6.93610264	      7.74628778	    -11.82159681	     14.81371633	     14.81371633	     13.47845827	      1.69177833	     -2.23256177	     37.97141732	    -14.85314593	      6.73392510	     76.86884742	     76.86884742	     -1.93759821	    -19.55175646	     21.09366150	    -10.04868157	      4.73409916	      1.71903717	     18.59171448	    -15.80112068	      3.96976500	     81.89229263	     45.65006502	      0.00000000	      0.00000000	     -2.65213263	     -7.09448075	    -10.52878492	     30.28622448	     45.61209465	      0.00000000	      0.00000000
     34.66271429	     -3.17525899	     -7.87134107	      0.51337030	      0.98193890	      0.92722287	      0.52474930	      6.33835161	      7.66880509	    -11.91180279	     14.15282205	     14.15282205	     13.63265534	      2.10242670	     -2.20085112	     39.49678468	    -14.36860521	      6.40791511	     75.65128696	     75.65128696	     -0.97480302	    -19.51262155	     20.71968551	    -10.07864315	      4.58141839	      1.81763251	     21.06280990	    -15.55871757	      4.07816716	     84.39731776	     45.57157087	      0.00000000	      0.00000000	     -3.63995304	     -6.97149489	    -10.47116877	     29.22421482	     45.60030018	      0.00000000	      0.00000000
     34.67407143	     -3.34685347	     -7.73026060	      0.63192345	      0.98032037	      0.92733916	      0.52499208	      5.70170367	      7.58772005	    -12.09000220	     13.48364001	     13.48364001	     13.76809186	      2.62980421	     -2.18328011	     40.79673217	    -13.84555855	      6.13152029	     74.11565453	     74.11565453	     -0.16146294	    -19.45854969	     20.26309874	    -10.15727074	      4.48013413	      1.93922192	     23.34294924	    -15.38600734	      4.40677364	     87.18944977	     45.47585161	      0.00000000	      0.00000000	     -4.48947575	     -6.86704948	    -10.38862640	     28.00784555	     45.59191238	      0.00000000	      0.00000000
     34.68542857	     -3.55636104	     -7.56784867	      0.72991331	      0.97869664	      0.92729922	      0.52513685	      5.15528624	      7.45302071	    -12.36115588	     12.90111914	     12.90111914	     13.93436478	      3.29421442	     -2.21734008	     41.95934417	    -13.32052978	      5.80944057	     72.26525074	     72.26525074	      0.42486127	    -19.39279506	     19.35735674	    -10.21297527	      4.35554994	      2.61256267	     25.30481498	    -15.96267354	      4.89490258	     90.32905334	     45.35791091	      0.00000000	      0.00000000	     -4.79436770	     -6.73751839	    -10.19010268	     26.38021173	     45.60241090	      0.00000000	      0.00000000
     34.69678571	     -3.77015267	     -7.39263774	      0.84016153	      0.97711896	      0.92719400	      0.52522940	      4.64572938	      7.33176081	    -12.42525261	     12.35368734	     12.35368734	     14.06765122	      3.59533306	     -2.14617327	     42.97022647	    -12.73633531	      5.56594778	     70.10448635	     70.10448635	      1.10402715	    -19.29264529	     18.91792482	    -10.25825162	      4.18925819	      2.78100292	     27.69043623	    -15.54121621	      4.69070033	     92.22931335	     45.31143549	      0.00000000	      0.00000000	     -5.63664072	     -6.69549470	    -10.08100242	     25.63640076	     45.58555736	      0.00000000	      0.00000000
     34.70814286	     -4.07187801	     -7.21073168	      0.93903916	      0.97554870	      0.92685986	      0.52518249	      4.31645559	      7.17883972	    -12.44863837	     11.96710137	     11.96710137	     14.26427111	      3.75908254	     -2.13595050	     43.90782992	    -12.15806851	      5.32806134	     67.61367559	     67.61367559	      1.78855723	    -19.16041129	     18.67797103	    -10.14628608	      4.02334625	      3.24216515	     29.98542263	    -15.52705386	      4.45286538	     93.47668788	     45.28845107	      0.00000000	      0.00000000	     -6.30800927	     -6.65128317	    -10.03283937	     25.25237994	     45.57058098	      0.00000000	      0.00000000
     34.71950000	     -4.17658366	     -7.07706987	      1.10882663	      0.97424327	      0.92669905	      0.52497343	      3.66119019	      7.06879741	    -12.78243890	     11.39139796	     11.39139796	     14.41293101	      4.36632431	     -2.05489900	     44.40085872	    -11.61201084	      5.21585174	     64.71597626	     64.71597626	      2.26562277	    -18.97539823	     17.65646450	    -10.35784261	      3.92757544	      3.10490658	     32.26413948	    -15.02150238	      4.87376771	     96.01650110	     45.20199301	      0.00000000	      0.00000000	     -7.20489959	     -6.64359591	     -9.75744751	     24.70544861	     45.52030515	      0.00000000	      0.00000000
     34.73085714	     -4.48612478	     -6.92900733	      1.21769943	      0.97283225	      0.92610873	      0.52469559	      3.39805340	      6.92600659	    -12.84389732	     11.12300147	     11.12300147	     14.61572581	      4.48344284	     -2.06286285	     44.95873121	    -11.05827939	      5.16575223	     61.54618440	     61.54618440	      2.92608254	    -18.70658988	     17.39322500	    -10.23660904	      3.79110157	      3.57636335	     34.45294810	    -15.07890598	      4.72212202	     97.09080752	     45.18170733	      0.00000000	      0.00000000	     -7.78819620	     -6.62697192	     -9.67349197	     24.51275121	     45.49778574	      0.00000000	      0.00000000
     34.74221429	     -4.56420185	     -6.80738105	      1.38354528	      0.97179036	      0.92568907	      0.52422707	      2.83570366	      6.77014784	    -13.26435534	     10.84506670	     10.84506670	     15.02691476	      5.20421670	     -1.72810083	     44.89945151	    -10.62948108	      5.07932430	     57.80286837	     57.80286837	      2.47957038	    -18.50380953	     13.76192517	    -10.46316163	      3.73169515	      3.58514376	     36.59879779	    -15.09704974	      5.73190261	     99.32190305	     45.08491719	      0.00000000	      0.00000000	     -8.96508774	     -6.80486324	     -7.93425037	     25.36537744	     45.19902951	      0.00000000	      0.00000000
     34.75357143	     -4.75390168	     -6.70160294	      1.52622318	      0.97070842	      0.92500816	      0.52369466	      2.43243382	      6.66349187	    -13.36387960	     10.60106963	     10.60106963	     15.25232709	      5.31514519	     -1.74224089	     44.91063941	    -10.12684764	      5.25198116	     54.05719998	     54.05719998	      3.15077582	    -18.06127462	     13.70055954	    -10.51153633	      3.65283080	      3.74067186	     38.68433791	    -14.73796978	      5.70172253	    100.53736152	     45.05637380	      0.00000000	      0.00000000	     -9.68417112	     -6.84298186	     -7.67389422	     25.21947076	     45.14753626	      0.00000000	      0.00000000
     34.76492857	     -5.07430414	     -6.71433976	      1.67567258	      0.96972656	      0.92392899	      0.52306346	      2.21512781	      6.66817582	    -13.49198435	     10.44973867	     10.44973867	     15.49341057	      5.34691710	     -1.80949549	     44.93433440	     -9.77878668	      5.53951463	     50.18266831	     50.18266831	      3.88026901	    -17.26448740	     13.75576261	    -10.32308441	      3.71502793	      4.08082253	     40.55828621	    -14.68153881	      5.61294731	    101.34029473	     45.04194350	      0.00000000	      0.00000000	    -10.19877094	     -6.77994861	     -7.55968708	     25.16326054	     45.11983664	      0.00000000	      0.00000000
     34.77628571	     -5.08023656	     -6.56504931	      1.80644323	      0.96919882	      0.92316744	      0.52225709	      1.59038034	      6.47927684	    -13.65253853	     10.27731963	     10.27731963	     15.89072326	      5.71850903	     -1.84692698	     44.30889124	     -9.34719597	      5.74028794	     46.11490291	     46.11490291	      4.48558077	    -16.54717730	     13.48256686	    -10.57851238	      3.63379997	      3.94761733	     42.54894209	    -14.22173377	      6.14084941	    102.82031603	     44.98726178	      0.00000000	      0.00000000	    -11.06616809	     -6.80746012	     -7.16802225	     25.35595726	     45.03790824	      0.00000000	      0.00000000
     34.78764286	     -5.23463784	     -6.58764246	      1.94185723	      0.96878454	      0.92195675	      0.52139598	      1.17659529	      6.43682546	    -14.06009947	     10.22504797	     10.22504797	     16.44824503	      6.34545172	     -1.33658947	     43.66663150	     -9.13335696	      6.03342695	     41.88489329	     41.88489329	      4.13072835	    -15.79036545	     11.03222973	    -10.57103861	      3.74205562	      3.97670072	     44.50534142	    -14.20241021	      7.14768978	    103.75783505	     44.95343538	      0.00000000	      0.00000000	    -12.98658348	     -7.85304329	      0.16144365	     28.15720491	     44.13802693	      0.00000000	      0.00000000
     34.79900000	     -5.43071868	     -6.56382566	      2.01811074	      0.96859358	      0.92057621	      0.52053958	      0.79248394	      6.37910011	    -14.09088083	     10.15381919	     10.15381919	     16.80443250	      6.39768658	     -1.47289499	     43.04992973	     -8.93892693	      6.27300566	     38.03854478	     38.03854478	      4.81498935	    -14.53894469	     11.41448429	    -10.45796195	      3.73859578	      4.21613523	     46.13696209	    -14.03022655	      7.15015290	    104.42626807	     44.93979432	      0.00000000	      0.00000000	    -13.45714948	     -7.77435298	      0.20559660	     28.10946527	     44.13460057	      0.00000000	      0.00000000
     34.81035714	     -5.49673393	     -6.61004953	      2.07314121	      0.96868299	      0.91920601	      0.51957408	      0.25878626	      6.37743548	    -14.18020623	     10.11154481	     10.11154481	     17.20137473	      6.63267760	     -1.60664701	     42.24958663	     -8.88152532	      6.42494601	     34.48092082	     34.48092082	      5.35429450	    -13.21263261	     11.91122268	    -10.50290507	      3.87642722	      4.29279841	     47.55666904	    -13.75160589	      7.44550397	    105.14490400	     44.91433719	      0.00000000	      0.00000000	    -14.11048690	     -7.70943113	      0.28540420	     28.14960408	     44.12679013	      0.00000000	      0.00000000
     34.82171429	     -5.58236078	     -6.65634628	      2.09843485	      0.96903739	      0.91766052	      0.51856296	     -0.27588473	      6.36497298	    -14.28725164	     10.07421378	     10.07421378	     17.63477054	      6.94441942	     -1.71933046	     41.45268358	     -8.88243216	      6.41868743	     31.33648787	     31.33648787	      5.80895719	    -11.84762256	     12.44891488	    -10.47663161	      3.97873386	      4.34241993	     48.87360973	    -13.51234963	      7.83033666	    105.72005408	     44.89012461	      0.00000000	      0.00000000	    -14.75315926	     -7.63196276	      0.38464723	     28.28136513	     44.11709026	      0.00000000	      0.00000000
